<?xml version="1.0" encoding="iso-8859-1"?>
<!-- Generator: Adobe Illustrator 16.0.0, SVG Export Plug-In . SVG Version: 6.00 Build 0)  -->
<!DOCTYPE svg PUBLIC "-//W3C//DTD SVG 1.1//EN" "http://www.w3.org/Graphics/SVG/1.1/DTD/svg11.dtd">
<svg version="1.1" id="Capa_1" xmlns="http://www.w3.org/2000/svg" xmlns:xlink="http://www.w3.org/1999/xlink" x="0px" y="0px"
	 width="107.166px" height="107.166px" viewBox="0 0 107.166 107.166" style="enable-background:new 0 0 107.166 107.166;"
	 xml:space="preserve">
<g>
	<path d="M71.833,107.166h-36.5c-3.032,0-5.5-2.468-5.5-5.5V5.5c0-3.033,2.468-5.5,5.5-5.5h36.5c3.032,0,5.5,2.467,5.5,5.5v96.166
		C77.333,104.698,74.865,107.166,71.833,107.166z M35.333,1c-2.481,0-4.5,2.018-4.5,4.5v96.166c0,2.48,2.019,4.5,4.5,4.5h36.5
		c2.48,0,4.5-2.02,4.5-4.5V5.5c0-2.482-2.02-4.5-4.5-4.5H35.333z M71.116,103.666H35.882c-1.355,0-2.932-1.062-2.932-2.434
		l-0.579-3.883h41.758l-0.584,3.955C73.55,102.574,72.458,103.666,71.116,103.666z M33.529,98.35l0.415,2.81
		c0.006,0.813,1.094,1.508,1.938,1.508h35.234c0.79,0,1.434-0.644,1.434-1.435l0.422-2.883H33.529z M37.667,79.166
		c-1.563,0-2.833-1.271-2.833-2.834s1.271-2.834,2.833-2.834S40.5,74.77,40.5,76.332S39.229,79.166,37.667,79.166z M37.667,74.498
		c-1.011,0-1.833,0.823-1.833,1.834c0,1.012,0.822,1.834,1.833,1.834c1.011,0,1.833-0.822,1.833-1.834
		C39.5,75.321,38.678,74.498,37.667,74.498z M37.667,72c-1.838,0-3.333-1.496-3.333-3.334s1.495-3.334,3.333-3.334
		S41,66.828,41,68.666S39.505,72,37.667,72z M37.667,66.332c-1.286,0-2.333,1.047-2.333,2.334S36.381,71,37.667,71
		S40,69.953,40,68.666S38.953,66.332,37.667,66.332z M72.763,30.748H33.562v-5.605h39.201V30.748z M34.562,29.748h37.201v-3.605
		H34.562V29.748z M72.763,19.521H33.562v-5.605h39.201V19.521z M34.562,18.521h37.201v-3.605H34.562V18.521z M74.129,9.857H32.371
		L32.955,5.9c-0.005-1.267,1.086-2.359,2.427-2.359h35.234c1.355,0,2.934,1.063,2.934,2.434L74.129,9.857z M33.528,8.857H72.97
		l-0.414-2.811c-0.006-0.81-1.095-1.505-1.939-1.505H35.382c-0.789,0-1.432,0.643-1.432,1.434L33.528,8.857z"/>
</g>
<g>
</g>
<g>
</g>
<g>
</g>
<g>
</g>
<g>
</g>
<g>
</g>
<g>
</g>
<g>
</g>
<g>
</g>
<g>
</g>
<g>
</g>
<g>
</g>
<g>
</g>
<g>
</g>
<g>
</g>
</svg>
