<?xml version="1.0" encoding="iso-8859-1"?>
<!-- Generator: Adobe Illustrator 16.0.0, SVG Export Plug-In . SVG Version: 6.00 Build 0)  -->
<!DOCTYPE svg PUBLIC "-//W3C//DTD SVG 1.1//EN" "http://www.w3.org/Graphics/SVG/1.1/DTD/svg11.dtd">
<svg version="1.1" id="Capa_1" xmlns="http://www.w3.org/2000/svg" xmlns:xlink="http://www.w3.org/1999/xlink" x="0px" y="0px"
	 width="91.358px" height="91.357px" viewBox="0 0 91.358 91.357" style="enable-background:new 0 0 91.358 91.357;"
	 xml:space="preserve">
<g>
	<path d="M58.512,91.357l-35-0.024c-2.481,0-4.5-2.019-4.5-4.5V4.5c0-2.481,2.019-4.5,4.5-4.5h44.333c2.481,0,4.5,2.019,4.5,4.5
		v82.333c0,2.481-2.019,4.5-4.5,4.5L58.512,91.357z M57.012,90.357l10.833-0.024c1.931,0,3.5-1.569,3.5-3.5V4.5
		c0-1.93-1.569-3.5-3.5-3.5H23.512c-1.93,0-3.5,1.57-3.5,3.5v82.333c0,1.931,1.57,3.5,3.5,3.5l10.833,0.024v-6.523h22.666
		L57.012,90.357L57.012,90.357z M35.346,90.107h20.666v-5.273H35.346V90.107z M44.137,36.082c-1.043,0-1.703-0.955-2.14-1.586
		c-1.101-1.59-1.723-4.23-0.708-5.992c0.561-0.976,1.583-1.592,2.667-1.609h0.035c0.434,0,0.832,0.141,1.164,0.271
		c-0.045-0.758,0.327-1.481,0.707-1.922c0.483-0.566,1.269-0.966,1.955-0.994l0.465-0.02l0.051,0.465
		c0.08,0.721-0.166,1.488-0.674,2.104c-0.019,0.021-0.037,0.043-0.055,0.063c0.092,0.002,0.182,0.003,0.271,0.012
		c0.431,0.016,1.585,0.179,2.344,1.287l0.287,0.42l-0.424,0.28c-0.239,0.149-0.954,0.673-0.945,1.642
		c0.012,1.232,1.025,1.684,1.141,1.732l0.438,0.18l-0.153,0.449c-0.083,0.266-0.33,0.957-0.809,1.657
		c-0.467,0.683-1.049,1.53-2.062,1.549c0,0,0,0-0.002,0c-0.479,0-0.779-0.13-1.043-0.244c-0.24-0.104-0.431-0.187-0.752-0.187
		c-0.342,0-0.544,0.086-0.799,0.195s-0.545,0.232-0.955,0.248C44.138,36.082,44.137,36.082,44.137,36.082z M43.991,27.395
		l-0.018,0.5c-0.735,0.012-1.431,0.436-1.817,1.107c-0.86,1.494-0.129,3.779,0.664,4.925c0.404,0.585,0.835,1.157,1.262,1.157
		c0.244-0.01,0.41-0.08,0.62-0.17c0.287-0.123,0.645-0.275,1.191-0.275c0.528,0,0.873,0.149,1.148,0.27
		c0.218,0.094,0.375,0.162,0.607,0.162c0.485-0.01,0.834-0.468,1.278-1.115c0.256-0.374,0.433-0.744,0.546-1.022
		c-0.516-0.334-1.326-1.073-1.338-2.422c-0.01-1.042,0.516-1.743,0.945-2.14c-0.469-0.418-1.025-0.491-1.277-0.502
		c-0.072-0.006-0.113-0.008-0.152-0.008c-0.359,0-0.736,0.148-1.07,0.279c-0.634,0.252-1.115,0.224-1.687-0.002
		c-0.302-0.12-0.614-0.244-0.905-0.244v-0.5H43.991z M47.284,25.404c-0.252,0.117-0.494,0.292-0.664,0.49
		c-0.16,0.187-0.328,0.461-0.414,0.76c0.261-0.1,0.498-0.271,0.681-0.493C47.075,25.933,47.211,25.67,47.284,25.404z"/>
</g>
<g>
</g>
<g>
</g>
<g>
</g>
<g>
</g>
<g>
</g>
<g>
</g>
<g>
</g>
<g>
</g>
<g>
</g>
<g>
</g>
<g>
</g>
<g>
</g>
<g>
</g>
<g>
</g>
<g>
</g>
</svg>
