<?xml version="1.0" encoding="iso-8859-1"?>
<!-- Generator: Adobe Illustrator 16.0.0, SVG Export Plug-In . SVG Version: 6.00 Build 0)  -->
<!DOCTYPE svg PUBLIC "-//W3C//DTD SVG 1.1//EN" "http://www.w3.org/Graphics/SVG/1.1/DTD/svg11.dtd">
<svg version="1.1" id="Capa_1" xmlns="http://www.w3.org/2000/svg" xmlns:xlink="http://www.w3.org/1999/xlink" x="0px" y="0px"
	 width="106.166px" height="106.166px" viewBox="0 0 106.166 106.166" style="enable-background:new 0 0 106.166 106.166;"
	 xml:space="preserve">
<g>
	<path d="M71.333,0h-36.5c-2.762,0-5,2.238-5,5v96.166c0,2.762,2.238,5,5,5h36.5c2.762,0,5-2.238,5-5V5
		C76.333,2.238,74.095,0,71.333,0z M72.55,100.732c0,1.066-0.865,1.934-1.934,1.934H35.382c-1.066,0-2.432-0.866-2.432-1.934
		l-0.5-3.383h40.6L72.55,100.732z M71.763,25.144v4.605H33.562v-4.605H71.763z M33.562,18.522v-4.606h38.201v4.606H33.562z
		 M37.167,71c-1.565,0-2.833-1.27-2.833-2.834s1.268-2.833,2.833-2.833S40,66.602,40,68.166S38.732,71,37.167,71z M39.5,75.833
		c0,1.288-1.044,2.333-2.333,2.333s-2.333-1.045-2.333-2.333c0-1.289,1.044-2.334,2.333-2.334S39.5,74.544,39.5,75.833z
		 M32.45,8.857l0.5-3.383c0-1.068,0.865-1.934,1.932-1.934h35.234c1.068,0,2.434,0.865,2.434,1.934l0.5,3.383H32.45z"/>
</g>
<g>
</g>
<g>
</g>
<g>
</g>
<g>
</g>
<g>
</g>
<g>
</g>
<g>
</g>
<g>
</g>
<g>
</g>
<g>
</g>
<g>
</g>
<g>
</g>
<g>
</g>
<g>
</g>
<g>
</g>
</svg>
