<?xml version="1.0" encoding="UTF-8" standalone="no"?>
<svg
   xmlns:dc="http://purl.org/dc/elements/1.1/"
   xmlns:cc="http://creativecommons.org/ns#"
   xmlns:rdf="http://www.w3.org/1999/02/22-rdf-syntax-ns#"
   xmlns:svg="http://www.w3.org/2000/svg"
   xmlns="http://www.w3.org/2000/svg"
   xmlns:sodipodi="http://sodipodi.sourceforge.net/DTD/sodipodi-0.dtd"
   xmlns:inkscape="http://www.inkscape.org/namespaces/inkscape"
   enable-background="new 0 0 24 24"
   height="5.5845675"
   viewBox="0 0 18.042702 5.5845675"
   width="18.042702"
   version="1.1"
   id="svg887"
   sodipodi:docname="logo-black.svg"
   inkscape:version="1.0.1 (0767f8302a, 2020-10-17)">
  <metadata
     id="metadata893">
    <rdf:RDF>
      <cc:Work
         rdf:about="">
        <dc:format>image/svg+xml</dc:format>
        <dc:type
           rdf:resource="http://purl.org/dc/dcmitype/StillImage" />
        <dc:title></dc:title>
      </cc:Work>
    </rdf:RDF>
  </metadata>
  <defs
     id="defs891" />
  <sodipodi:namedview
     pagecolor="#ffffff"
     bordercolor="#666666"
     borderopacity="1"
     objecttolerance="10"
     gridtolerance="10"
     guidetolerance="10"
     inkscape:pageopacity="0"
     inkscape:pageshadow="2"
     inkscape:window-width="2560"
     inkscape:window-height="1370"
     id="namedview889"
     showgrid="false"
     inkscape:zoom="34.736621"
     inkscape:cx="11.916106"
     inkscape:cy="10.131969"
     inkscape:window-x="1920"
     inkscape:window-y="0"
     inkscape:window-maximized="1"
     inkscape:current-layer="svg887" />
  <text
     xml:space="preserve"
     style="font-style:normal;font-weight:normal;font-size:3.64588px;line-height:1.25;font-family:sans-serif;fill:#000000;fill-opacity:1;stroke:none;stroke-width:0.0911467"
     x="1.8560349"
     y="2.8238487"
     id="text897"><tspan
       sodipodi:role="line"
       id="tspan895"
       x="1.8560349"
       y="2.8238487"
       style="font-style:normal;font-variant:normal;font-weight:normal;font-stretch:normal;font-family:FreeMono;-inkscape-font-specification:FreeMono;stroke-width:0.0911467">netUI</tspan></text>
  <path
     style="fill:#000000;stroke-width:0.00850173"
     d="M 14.344311,4.943121 C 14.294161,4.931459 14.245661,4.903822 14.205145,4.863854 14.059732,4.720358 14.102434,4.4828882 14.289945,4.3922879 l 0.04808,-0.023239 V 3.8379986 3.3069484 l 0.02633,-0.021841 c 0.03778,-0.031354 0.08733,-0.026624 0.116748,0.011199 0.0079,0.010186 0.01049,0.1400275 0.0107,0.5431049 l 2.74e-4,0.5297017 0.04631,0.02164 c 0.102694,0.047939 0.17021,0.1511356 0.170704,0.2609163 3.21e-4,0.070777 -0.01206,0.111835 -0.05157,0.1710471 -0.06405,0.09598 -0.197585,0.1473331 -0.313202,0.1204591 z m 0.143485,-0.1767391 c 0.0754,-0.045806 0.07868,-0.1614762 0.0061,-0.2148154 -0.0335,-0.02463 -0.109481,-0.027335 -0.145236,-0.00518 -0.04066,0.025187 -0.06191,0.064525 -0.06188,0.1145554 5.9e-5,0.1038476 0.109326,0.1611547 0.201034,0.1054405 z M 13.074427,4.3607941 c -0.05697,-0.011113 -0.117476,-0.04617 -0.15969,-0.092506 -0.133914,-0.1469785 -0.08411,-0.3786411 0.09912,-0.4610833 0.04402,-0.019816 0.06515,-0.023997 0.1219,-0.024298 0.06067,-2.999e-4 0.08825,0.00688 0.125785,0.027467 0.06037,0.033085 0.115856,0.08294 0.144835,0.1462133 l 0.01896,0.04137 0.128989,-2.288e-4 c 0.14586,-2.233e-4 0.193081,-0.00815 0.23459,-0.03943 0.05815,-0.043766 0.06088,-0.05971 0.0611,-0.3554805 1.98e-4,-0.2806376 0.004,-0.3106138 0.04169,-0.3305292 0.0345,-0.018216 0.07507,-0.01116 0.09935,0.017319 l 0.02256,0.026447 -0.0025,0.2965766 -0.0025,0.2965799 -0.02649,0.054895 c -0.03366,0.069764 -0.08682,0.1222251 -0.157521,0.155438 l -0.05563,0.026161 -0.172902,0.00255 -0.172902,0.00255 -0.02053,0.044237 c -0.03983,0.085855 -0.108367,0.1412486 -0.201538,0.1628874 -0.05361,0.012466 -0.07443,0.012891 -0.126599,0.00255 z M 13.215362,4.178047 c 0.07571,-0.056982 0.06753,-0.1859637 -0.01582,-0.2341272 -0.08546,-0.049385 -0.196619,0.02987 -0.196619,0.1275113 0,0.1121935 0.123009,0.1739289 0.212441,0.1066159 z m 2.400306,0.179274 C 15.532498,4.33167 15.467354,4.277859 15.429916,4.2038731 l -0.02188,-0.043248 -0.164856,-0.00425 c -0.141836,-0.0034 -0.171561,-0.00672 -0.212882,-0.022397 -0.09516,-0.036084 -0.170476,-0.1160895 -0.1992,-0.2115494 -0.01149,-0.038202 -0.0138,-0.093035 -0.0138,-0.3279048 V 3.3124828 l 0.02502,-0.024677 c 0.04259,-0.04205 0.108786,-0.027722 0.128394,0.027807 0.0058,0.016353 0.0093,0.1236741 0.0094,0.2886952 2.05e-4,0.2921183 0.0026,0.3068865 0.05877,0.3534735 0.04049,0.033634 0.07698,0.039971 0.22926,0.040056 l 0.138447,5.02e-5 0.02134,-0.046 c 0.05409,-0.1165925 0.189077,-0.1877551 0.313301,-0.1651696 0.20879,0.037947 0.310959,0.2486119 0.211529,0.4361221 -0.05707,0.1076299 -0.217041,0.1714103 -0.337067,0.1343942 z m 0.151604,-0.1726492 c 0.03654,-0.025821 0.05991,-0.067616 0.05991,-0.1071647 0,-0.046069 -0.0092,-0.069478 -0.03868,-0.09854 -0.09259,-0.091239 -0.247434,-0.00441 -0.222841,0.1249509 0.01584,0.083286 0.132114,0.12986 0.201615,0.080754 z M 13.404267,2.9380419 C 13.269343,2.9115018 13.129186,2.8323602 13.031289,2.7274139 12.75757,2.4339855 12.764773,2.0015309 13.047766,1.7380873 l 0.06213,-0.057847 6.57e-4,-0.1016125 c 5.57e-4,-0.082369 0.0043,-0.1120029 0.01998,-0.1565069 0.07746,-0.2203724 0.283793,-0.3591573 0.509974,-0.3430238 l 0.06847,0.00493 0.03424,-0.05262 c 0.04275,-0.0657117 0.171576,-0.19472339 0.239634,-0.23997062 0.166306,-0.11057476 0.322688,-0.15688758 0.530619,-0.1571451 0.111158,-1.3555e-4 0.139473,0.002983 0.21113,0.0215917 0.169132,0.0444732 0.29258,0.11206256 0.41294,0.22608969 0.131762,0.12482803 0.226172,0.29000583 0.261107,0.45682713 l 0.01,0.047541 0.07569,0.026709 c 0.23059,0.081397 0.420824,0.2919153 0.490265,0.542539 0.01682,0.060734 0.01941,0.089553 0.01881,0.2097577 -6.42e-4,0.1264209 -0.0029,0.1463992 -0.02405,0.2153562 -0.09122,0.296864 -0.345869,0.5188254 -0.644052,0.5613642 -0.09508,0.013562 -1.850266,0.00989 -1.921,-0.00383 z m 1.928805,-0.159786 C 15.543299,2.7385758 15.734089,2.5689502 15.805106,2.358618 15.918134,2.0238545 15.732899,1.6561366 15.399007,1.5524784 15.25972,1.5092309 15.268811,1.5177468 15.248986,1.411915 15.241799,1.3734212 15.229727,1.3228903 15.22223,1.2996664 15.184717,1.1835352 15.094004,1.0488403 15.000743,0.97076425 14.746782,0.75815865 14.403629,0.73040503 14.113082,0.89897645 14.030035,0.94715314 13.907513,1.069208 13.859209,1.1518728 c -0.06322,0.1081834 -0.08141,0.1190264 -0.163057,0.097222 -0.192685,-0.051452 -0.3859,0.070968 -0.420826,0.266634 -0.0081,0.045219 -0.0072,0.066574 0.0056,0.1306757 0.01168,0.058639 0.01302,0.080768 0.0057,0.094281 -0.0053,0.00972 -0.03932,0.040057 -0.07568,0.067445 -0.08244,0.062095 -0.146529,0.1439314 -0.182946,0.2335944 -0.02438,0.06004 -0.02839,0.080979 -0.03176,0.1660436 -0.0046,0.1161571 0.0076,0.1740518 0.05764,0.2742569 0.07418,0.1484404 0.208723,0.2594633 0.357546,0.2950473 0.07406,0.017707 1.82839,0.018802 1.921637,0.0013 z"
     id="path990"
     sodipodi:nodetypes="ssscccssscsssssssscsssssascssssscccsscccsssssssscscsssscssssccsssccsssssssscssscsssssscssssssssssssssssssssssss" />
  <path
     style="fill:none;stroke:#000000;stroke-width:0.3257;stroke-opacity:1"
     d=""
     id="path1029" />
  <path
     style="fill:none;stroke:#000000;stroke-width:0.3257;stroke-opacity:1"
     d=""
     id="path1031" />
  <path
     style="fill:none;stroke:#000000;stroke-width:0.3257;stroke-opacity:1"
     d=""
     id="path1033" />
</svg>
