<?xml version="1.0" encoding="UTF-8" standalone="no"?>
<svg
   xmlns:dc="http://purl.org/dc/elements/1.1/"
   xmlns:cc="http://creativecommons.org/ns#"
   xmlns:rdf="http://www.w3.org/1999/02/22-rdf-syntax-ns#"
   xmlns:svg="http://www.w3.org/2000/svg"
   xmlns="http://www.w3.org/2000/svg"
   xmlns:sodipodi="http://sodipodi.sourceforge.net/DTD/sodipodi-0.dtd"
   xmlns:inkscape="http://www.inkscape.org/namespaces/inkscape"
   enable-background="new 0 0 24 24"
   height="32.778381"
   viewBox="0 0 105.90124 32.778381"
   width="105.90124"
   version="1.1"
   id="svg887"
   sodipodi:docname="logo-white.svg"
   inkscape:version="1.0.1 (0767f8302a, 2020-10-17)">
  <metadata
     id="metadata893">
    <rdf:RDF>
      <cc:Work
         rdf:about="">
        <dc:format>image/svg+xml</dc:format>
        <dc:type
           rdf:resource="http://purl.org/dc/dcmitype/StillImage" />
        <dc:title />
      </cc:Work>
    </rdf:RDF>
  </metadata>
  <defs
     id="defs891" />
  <sodipodi:namedview
     pagecolor="#ffffff"
     bordercolor="#666666"
     borderopacity="1"
     objecttolerance="10"
     gridtolerance="10"
     guidetolerance="10"
     inkscape:pageopacity="0"
     inkscape:pageshadow="2"
     inkscape:window-width="2560"
     inkscape:window-height="1370"
     id="namedview889"
     showgrid="false"
     inkscape:zoom="12.28125"
     inkscape:cx="50.133262"
     inkscape:cy="14.545284"
     inkscape:window-x="1920"
     inkscape:window-y="0"
     inkscape:window-maximized="1"
     inkscape:current-layer="svg887"
     inkscape:document-rotation="0" />
  <text
     xml:space="preserve"
     style="font-style:normal;font-weight:normal;font-size:24.3894px;line-height:1.25;font-family:sans-serif;fill:#f9f9f9;fill-opacity:1;stroke:none;stroke-width:0.60973"
     x="7.2767811"
     y="18.553535"
     id="text897"><tspan
       sodipodi:role="line"
       id="tspan895"
       x="7.2767811"
       y="18.553535"
       style="font-style:normal;font-variant:normal;font-weight:normal;font-stretch:normal;font-family:FreeMono;-inkscape-font-specification:FreeMono;fill:#f9f9f9;stroke-width:0.60973">netUI</tspan></text>
  <path
     style="fill:#f9f9f9;stroke-width:0.0568726"
     d="M 90.817581,32.730484 C 90.4821,32.65247 90.157657,32.467592 89.886626,32.200226 88.913879,31.240304 89.199536,29.65174 90.453898,29.045667 l 0.321632,-0.155471 v -3.552468 -3.552479 l 0.17613,-0.146109 c 0.252731,-0.209744 0.584196,-0.178102 0.780989,0.07491 0.05283,0.06814 0.07018,0.93672 0.07158,3.633122 l 0.0019,3.543458 0.309793,0.144768 c 0.686975,0.320692 1.138626,1.011028 1.141929,1.745409 0.0018,0.473467 -0.08069,0.748127 -0.344975,1.144228 -0.428468,0.642061 -1.321757,0.985589 -2.09518,0.805814 z m 0.95985,-1.182303 c 0.504385,-0.306421 0.526335,-1.080198 0.04081,-1.437012 -0.224096,-0.16477 -0.732379,-0.182852 -0.971561,-0.03466 -0.271999,0.168492 -0.41415,0.431642 -0.41395,0.766321 3.95e-4,0.694692 0.731341,1.07805 1.344825,0.705348 z m -9.454788,-2.713193 c -0.381103,-0.07434 -0.785859,-0.308854 -1.068252,-0.618821 -0.895823,-0.983219 -0.562656,-2.532935 0.663067,-3.084434 0.294475,-0.132562 0.435824,-0.160532 0.815455,-0.162543 0.405854,-0.0021 0.590351,0.04603 0.841444,0.183743 0.403846,0.221324 0.775022,0.554829 0.968879,0.978099 l 0.126824,0.276745 0.862881,-0.0015 c 0.975733,-0.0015 1.291621,-0.05451 1.569297,-0.263771 0.388997,-0.292775 0.407258,-0.399432 0.40873,-2.378 0.0013,-1.877337 0.02677,-2.077863 0.278887,-2.211088 0.230794,-0.121857 0.502186,-0.07466 0.664608,0.115856 l 0.150903,0.176918 -0.01662,1.98396 -0.01662,1.983983 -0.177205,0.367222 c -0.225173,0.46669 -0.580786,0.817629 -1.053743,1.039808 l -0.37214,0.175004 -1.156635,0.01709 -1.156634,0.01709 -0.137342,0.295924 c -0.266445,0.574331 -0.724925,0.944888 -1.348196,1.089642 -0.358627,0.0834 -0.497901,0.08623 -0.846888,0.01709 z m 0.942792,-1.222494 c 0.506464,-0.381183 0.451743,-1.244011 -0.105828,-1.566203 -0.571689,-0.330362 -1.31529,0.199817 -1.31529,0.852992 0,0.750524 0.822873,1.163505 1.421132,0.713211 z M 99.32237,28.811755 C 98.76601,28.64017 98.33022,28.28019 98.07978,27.78526 l -0.146362,-0.28931 -1.102807,-0.02844 c -0.94883,-0.02274 -1.147676,-0.04494 -1.424096,-0.149823 -0.636572,-0.241385 -1.140403,-0.776585 -1.332555,-1.415168 -0.0769,-0.255553 -0.09231,-0.622361 -0.09231,-2.193531 v -1.886727 l 0.167366,-0.165076 c 0.284902,-0.281296 0.727728,-0.185447 0.8589,0.186018 0.03876,0.109392 0.06218,0.827322 0.06289,1.931236 0.0018,1.954137 0.01735,2.05293 0.393138,2.364574 0.270863,0.224997 0.514966,0.267389 1.533657,0.267956 l 0.926143,3.36e-4 0.142746,-0.307718 c 0.36183,-0.779949 1.26485,-1.255995 2.09585,-1.104909 1.3967,0.253848 2.08016,1.663098 1.41502,2.917457 -0.38177,0.719995 -1.4519,1.146657 -2.25482,0.899033 z m 1.01417,-1.154943 c 0.24443,-0.172732 0.40077,-0.45232 0.40077,-0.716884 0,-0.308179 -0.0615,-0.464775 -0.25875,-0.659186 -0.61938,-0.610346 -1.65522,-0.0295 -1.4907,0.835864 0.10595,0.557145 0.88377,0.868704 1.34871,0.540206 z m -15.807419,-8.33938 c -0.902581,-0.177541 -1.840165,-0.706961 -2.49505,-1.409004 -1.831055,-1.962899 -1.782871,-4.85582 0.110221,-6.618137 l 0.415622,-0.386969 0.0045,-0.679741 c 0.0037,-0.5510104 0.02877,-0.7492476 0.133666,-1.0469585 0.518165,-1.4741897 1.898437,-2.4025969 3.411484,-2.2946706 l 0.458033,0.032979 0.22906,-0.3520039 c 0.285911,-0.4395811 1.147697,-1.3026095 1.602975,-1.605292 1.11251,-0.7396948 2.15863,-1.0495063 3.549594,-1.0512281 0.74359,-9.073e-4 0.933012,0.019954 1.412357,0.144439 1.131419,0.2975047 1.957227,0.7496471 2.762377,1.5124355 0.881436,0.8350418 1.512997,1.9400047 1.746687,3.0559627 l 0.06683,0.3180267 0.506333,0.1786718 c 1.54254,0.5445081 2.81511,1.9527784 3.27965,3.6293354 0.11251,0.406283 0.12984,0.599069 0.12584,1.403183 -0.005,0.845697 -0.0195,0.979342 -0.16088,1.440633 -0.61022,1.985883 -2.31371,3.470703 -4.308414,3.755266 -0.636042,0.09071 -12.377429,0.06615 -12.850607,-0.02562 z m 12.902815,-1.068894 c 1.406324,-0.265441 2.682624,-1.400158 3.157694,-2.807183 0.7561,-2.239412 -0.48303,-4.699276 -2.716614,-5.392701 C 96.941248,9.7593473 97.00206,9.8163147 96.869447,9.1083493 96.821354,8.8508434 96.74061,8.5128148 96.690463,8.3574581 96.439512,7.5805937 95.832684,6.6795477 95.208805,6.1572541 93.509924,4.735021 91.214393,4.5493621 89.270766,5.6770275 c -0.555545,0.3222801 -1.375162,1.1387702 -1.698294,1.69176 -0.422911,0.7236969 -0.544594,0.7962317 -1.090775,0.6503695 -1.288975,-0.3441899 -2.581494,0.4747433 -2.815131,1.7836592 -0.05417,0.3024938 -0.04815,0.4453488 0.03747,0.8741598 0.07813,0.392268 0.0871,0.5403 0.03813,0.630696 -0.03546,0.06502 -0.263032,0.267963 -0.506265,0.451176 -0.551485,0.415387 -0.98021,0.962834 -1.223824,1.562639 -0.163083,0.40164 -0.189923,0.541711 -0.212456,1.110755 -0.03077,0.777037 0.05084,1.164324 0.385586,1.834653 0.496229,0.992996 1.396261,1.735688 2.391817,1.97373 0.49543,0.118449 12.231094,0.125775 12.854876,0.0086 z"
     id="path990"
     sodipodi:nodetypes="ssscccssscsssssssscsssssascssssscccsscccsssssssscscsssscssssccsssccsssssssscssscsssssscssssssssssssssssssssssss" />
  <path
     style="fill:none;stroke:#000000;stroke-width:0.3257;stroke-opacity:1"
     d=""
     id="path1029" />
  <path
     style="fill:none;stroke:#000000;stroke-width:0.3257;stroke-opacity:1"
     d=""
     id="path1031" />
  <path
     style="fill:none;stroke:#000000;stroke-width:0.3257;stroke-opacity:1"
     d=""
     id="path1033" />
</svg>
