<?xml version="1.0" encoding="iso-8859-1"?>
<!-- Generator: Adobe Illustrator 16.0.0, SVG Export Plug-In . SVG Version: 6.00 Build 0)  -->
<!DOCTYPE svg PUBLIC "-//W3C//DTD SVG 1.1//EN" "http://www.w3.org/Graphics/SVG/1.1/DTD/svg11.dtd">
<svg version="1.1" id="Capa_1" xmlns="http://www.w3.org/2000/svg" xmlns:xlink="http://www.w3.org/1999/xlink" x="0px" y="0px"
	 width="81.235px" height="81.236px" viewBox="0 0 81.235 81.236" style="enable-background:new 0 0 81.235 81.236;"
	 xml:space="preserve">
<g>
	<g>
		<path d="M76.031,6.65H5.204C2.331,6.65,0,8.979,0,11.853v57.53c0,2.873,2.331,5.203,5.204,5.203h70.827
			c2.874,0,5.204-2.33,5.204-5.203v-57.53C81.235,8.979,78.905,6.65,76.031,6.65z M40.618,69.666
			c-16.017,0-29.048-13.031-29.048-29.048c0-16.017,13.031-29.048,29.048-29.048c16.017,0,29.048,13.031,29.048,29.048
			C69.666,56.634,56.635,69.666,40.618,69.666z"/>
		<path d="M40.618,20.177c-11.271,0-20.441,9.17-20.441,20.441c0,11.271,9.17,20.44,20.441,20.44c11.271,0,20.44-9.17,20.44-20.44
			C61.059,29.347,51.889,20.177,40.618,20.177z M31.507,45.359v-9.482l6.364,4.741L31.507,45.359z M44.657,45.427h-2.536v-9.619
			h2.536V45.427z M49.729,45.427h-2.535v-9.619h2.535V45.427z"/>
	</g>
</g>
<g>
</g>
<g>
</g>
<g>
</g>
<g>
</g>
<g>
</g>
<g>
</g>
<g>
</g>
<g>
</g>
<g>
</g>
<g>
</g>
<g>
</g>
<g>
</g>
<g>
</g>
<g>
</g>
<g>
</g>
</svg>
