<?xml version="1.0" encoding="iso-8859-1"?>
<!-- Generator: Adobe Illustrator 16.0.0, SVG Export Plug-In . SVG Version: 6.00 Build 0)  -->
<!DOCTYPE svg PUBLIC "-//W3C//DTD SVG 1.1//EN" "http://www.w3.org/Graphics/SVG/1.1/DTD/svg11.dtd">
<svg version="1.1" id="Capa_1" xmlns="http://www.w3.org/2000/svg" xmlns:xlink="http://www.w3.org/1999/xlink" x="0px" y="0px"
	 width="82.235px" height="82.236px" viewBox="0 0 82.235 82.236" style="enable-background:new 0 0 82.235 82.236;"
	 xml:space="preserve">
<g>
	<path d="M76.531,75.585H5.704C2.559,75.585,0,73.027,0,69.882v-57.53C0,9.208,2.559,6.65,5.704,6.65h70.827
		c3.145,0,5.704,2.559,5.704,5.703v57.53C82.235,73.027,79.676,75.585,76.531,75.585z M5.704,7.649C3.11,7.649,1,9.759,1,12.352
		v57.531c0,2.594,2.11,4.702,4.704,4.702h70.827c2.594,0,4.704-2.108,4.704-4.702V12.352c0-2.593-2.11-4.703-4.704-4.703H5.704z
		 M41.118,70.666c-16.293,0-29.548-13.256-29.548-29.549S24.825,11.57,41.118,11.57s29.548,13.254,29.548,29.547
		S57.411,70.666,41.118,70.666z M41.118,12.57c-15.741,0-28.548,12.807-28.548,28.547c0,15.742,12.807,28.549,28.548,28.549
		s28.548-12.807,28.548-28.549C69.666,25.376,56.859,12.57,41.118,12.57z M41.118,62.058c-11.547,0-20.941-9.395-20.941-20.941
		s9.394-20.941,20.941-20.941s20.94,9.395,20.94,20.941C62.059,52.665,52.665,62.058,41.118,62.058z M41.118,21.176
		c-10.996,0-19.941,8.946-19.941,19.941c0,10.996,8.946,19.941,19.941,19.941s19.94-8.945,19.94-19.941
		C61.059,30.122,52.114,21.176,41.118,21.176z M31.507,46.855V35.381l7.701,5.736L31.507,46.855z M32.507,37.373v7.49l5.027-3.746
		L32.507,37.373z M50.729,46.427h-3.535v-10.62h3.535V46.427z M48.193,45.427h1.535v-8.619h-1.535V45.427z M45.657,46.427h-3.536
		v-10.62h3.536V46.427z M43.121,45.427h1.536v-8.619h-1.536V45.427z"/>
</g>
<g>
</g>
<g>
</g>
<g>
</g>
<g>
</g>
<g>
</g>
<g>
</g>
<g>
</g>
<g>
</g>
<g>
</g>
<g>
</g>
<g>
</g>
<g>
</g>
<g>
</g>
<g>
</g>
<g>
</g>
</svg>
