<?xml version="1.0" encoding="iso-8859-1"?>
<!-- Generator: Adobe Illustrator 16.0.0, SVG Export Plug-In . SVG Version: 6.00 Build 0)  -->
<!DOCTYPE svg PUBLIC "-//W3C//DTD SVG 1.1//EN" "http://www.w3.org/Graphics/SVG/1.1/DTD/svg11.dtd">
<svg version="1.1" id="Capa_1" xmlns="http://www.w3.org/2000/svg" xmlns:xlink="http://www.w3.org/1999/xlink" x="0px" y="0px"
	 width="116.383px" height="116.383px" viewBox="0 0 116.383 116.383" style="enable-background:new 0 0 116.383 116.383;"
	 xml:space="preserve">
<g>
	<path d="M114.54,95.603H1.844C0.827,95.603,0,94.775,0,93.757v-3.299h48.259l0.107,0.355c0.179,0.596,0.713,0.996,1.328,0.996
		h16.996c0.614,0,1.148-0.4,1.328-0.996l0.106-0.355h48.259v3.299C116.383,94.775,115.556,95.603,114.54,95.603z M1.001,91.458
		v2.301c0,0.466,0.378,0.845,0.844,0.845H114.54c0.465,0,0.844-0.379,0.844-0.845v-2.301H68.838
		c-0.395,0.822-1.217,1.354-2.148,1.354H49.694c-0.932,0-1.754-0.53-2.148-1.354H1.001z M104.859,88.78H11.525c-2.206,0-4-1.794-4-4
		v-60c0-2.206,1.794-4,4-4h93.333c2.207,0,4,1.794,4,4v60C108.859,86.986,107.064,88.78,104.859,88.78z M11.525,21.78
		c-1.654,0-3,1.346-3,3v60c0,1.654,1.346,3,3,3h93.333c1.654,0,3-1.346,3-3v-60c0-1.654-1.346-3-3-3H11.525z M104.859,85.78H11.525
		c-0.551,0-1-0.447-1-1v-60c0-0.552,0.449-1,1-1h93.333c0.551,0,1,0.448,1,1v60C105.859,85.333,105.41,85.78,104.859,85.78z
		 M11.526,24.78v60h93.333v-60H11.526L11.526,24.78z"/>
</g>
<g>
</g>
<g>
</g>
<g>
</g>
<g>
</g>
<g>
</g>
<g>
</g>
<g>
</g>
<g>
</g>
<g>
</g>
<g>
</g>
<g>
</g>
<g>
</g>
<g>
</g>
<g>
</g>
<g>
</g>
</svg>
