<?xml version="1.0" encoding="UTF-8" standalone="no"?>
<svg
   xmlns:dc="http://purl.org/dc/elements/1.1/"
   xmlns:cc="http://creativecommons.org/ns#"
   xmlns:rdf="http://www.w3.org/1999/02/22-rdf-syntax-ns#"
   xmlns:svg="http://www.w3.org/2000/svg"
   xmlns="http://www.w3.org/2000/svg"
   xmlns:sodipodi="http://sodipodi.sourceforge.net/DTD/sodipodi-0.dtd"
   xmlns:inkscape="http://www.inkscape.org/namespaces/inkscape"
   version="1.0"
   width="90.000031pt"
   height="82.500053pt"
   viewBox="0 0 90.000028 82.500055"
   preserveAspectRatio="xMidYMid meet"
   id="svg8"
   sodipodi:docname="pc-off.svg"
   inkscape:version="1.0.1 (0767f8302a, 2020-10-17)">
  <defs
     id="defs12" />
  <sodipodi:namedview
     pagecolor="#ffffff"
     bordercolor="#666666"
     borderopacity="1"
     objecttolerance="10"
     gridtolerance="10"
     guidetolerance="10"
     inkscape:pageopacity="0"
     inkscape:pageshadow="2"
     inkscape:window-width="2560"
     inkscape:window-height="1370"
     id="namedview10"
     showgrid="false"
     inkscape:zoom="8"
     inkscape:cx="50.444629"
     inkscape:cy="26.289884"
     inkscape:window-x="1920"
     inkscape:window-y="0"
     inkscape:window-maximized="1"
     inkscape:current-layer="svg8"
     inkscape:document-rotation="0"
     showguides="true"
     inkscape:guide-bbox="true">
    <sodipodi:guide
       position="45.008252,83.256766"
       orientation="1,0"
       id="guide997" />
    <sodipodi:guide
       position="27.301625,64.907821"
       orientation="0,-1"
       id="guide1017" />
    <sodipodi:guide
       position="31.759768,25.12971"
       orientation="1,0"
       id="guide1019" />
  </sodipodi:namedview>
  <metadata
     id="metadata2">
Created by potrace 1.15, written by Peter Selinger 2001-2017
<rdf:RDF>
  <cc:Work
     rdf:about="">
    <dc:format>image/svg+xml</dc:format>
    <dc:type
       rdf:resource="http://purl.org/dc/dcmitype/StillImage" />
    <dc:title></dc:title>
  </cc:Work>
</rdf:RDF>
</metadata>
  <g
     inkscape:groupmode="layer"
     id="layer3"
     inkscape:label="Layer 2"
     transform="translate(-1153.875,-1081.26)" />
  <g
     inkscape:groupmode="layer"
     id="layer1"
     inkscape:label="Layer 1"
     transform="translate(-1153.875,-1081.26)" />
  <g
     transform="matrix(0.00703675,0,0,-0.00688233,-0.03518375,82.500055)"
     fill="#000000"
     stroke="none"
     id="g6"
     style="fill:#dddddd;fill-opacity:1">
    <path
       d="m 560,11975 c -36,-8 -107,-35 -158,-60 -169,-84 -294,-233 -364,-435 L 5,11385 V 7400 3415 l 23,-78 c 76,-263 258,-451 507,-524 56,-17 197,-18 2363,-21 l 2302,-2 v -493 c 0,-276 -5,-523 -10,-562 -40,-274 -224,-512 -480,-621 -140,-60 -179,-64 -687,-64 -485,0 -521,-3 -611,-49 C 3342,965 3282,902 3244,825 3194,723 3188,626 3224,486 3282,260 3402,75 3524,19 3564,1 3648,0 6401,0 h 2835 l 52,26 c 106,53 218,225 278,429 35,118 38,255 8,331 -46,113 -122,191 -234,236 -54,22 -66,23 -570,29 -573,6 -561,5 -716,79 -163,78 -296,211 -374,374 -75,157 -73,138 -77,743 l -4,543 2303,2 c 2166,3 2307,4 2363,21 249,73 431,261 507,524 l 23,78 v 3985 3985 l -33,95 c -82,238 -239,398 -467,480 l -70,25 -5800,2 c -4928,1 -5810,-1 -5865,-12 z M 12000,7390 V 3590 H 6400 800 V 7390 L 772.71969,11198.516 6400,11190 h 5600 z"
       id="path4"
       sodipodi:nodetypes="ccccccccccsccsccccscscccccccccccccccccccccccccccc"
       style="fill:#dddddd;fill-opacity:1" />
  </g>
  <path
     d="M 52.500981,37.9225 46.760709,32.237502 52.443478,26.50375 50.673394,24.75 l -5.681518,5.73625 -5.735271,-5.67875 -1.756333,1.75625 5.741521,5.690002 -5.684018,5.739998 1.756333,1.75625 5.694019,-5.745 5.739021,5.6875 z M 31.671247,25.37625 c 1.387565,-2.6975 3.59767,-4.98125 6.455305,-6.4525 l 0.957545,2.31 c -2.225105,1.19375 -3.962687,2.9925 -5.095241,5.10375 z M 39.086597,43.26 c -2.11135,-1.13125 -3.908935,-2.86875 -5.102741,-5.09375 l -2.310109,0.95625 c 1.468819,2.85875 3.753927,5.06875 6.452805,6.458751 z M 33.027561,35.85625 C 32.297526,33.440002 32.341278,30.94 33.033861,28.6475 l -2.321359,-0.96125 c -0.467522,1.46375 -0.712534,3.00125 -0.712534,4.560002 0,1.51875 0.232511,3.057498 0.716284,4.567498 z m 7.41035,-17.89 0.957545,2.31125 c 2.416364,-0.73 4.917732,-0.68625 7.209091,0.0063 l 0.962545,-2.32 C 48.100773,17.495 46.56445,17.25 45.005627,17.25 c -1.518822,0 -3.056395,0.23375 -4.567716,0.71625 z m 10.476745,3.275 c 2.110099,1.13125 3.908934,2.86875 5.101491,5.0925 l 2.310109,-0.9575 C 56.856186,22.51875 54.572328,20.31 51.874701,18.92 Z m 6.059036,7.4025 c 0.730034,2.41625 0.686282,4.917502 -0.0063,7.21 l 2.32011,0.9625 c 0.468772,-1.46375 0.712534,-3.001248 0.712534,-4.559998 0,-1.518752 -0.232511,-3.058752 -0.716284,-4.570002 z m -0.962546,9.52 c -1.131303,2.11 -2.868885,3.90875 -5.09274,5.1025 l 0.957545,2.311251 C 54.733586,44.1075 56.94369,41.8225 58.331256,39.125 Z m -7.404099,6.05875 c -2.417615,0.73 -4.917733,0.6875 -7.210341,-0.0063 l -0.962545,2.32125 c 1.465069,0.467584 3.002641,0.712584 4.562715,0.712584 1.518822,0 3.056395,-0.2325 4.566466,-0.715 z"
     id="path1094"
     style="stroke-width:1.25003;fill:#dddddd;fill-opacity:1" />
</svg>
