<?xml version="1.0" encoding="UTF-8" standalone="no"?>
<svg
   xmlns:dc="http://purl.org/dc/elements/1.1/"
   xmlns:cc="http://creativecommons.org/ns#"
   xmlns:rdf="http://www.w3.org/1999/02/22-rdf-syntax-ns#"
   xmlns:svg="http://www.w3.org/2000/svg"
   xmlns="http://www.w3.org/2000/svg"
   xmlns:sodipodi="http://sodipodi.sourceforge.net/DTD/sodipodi-0.dtd"
   xmlns:inkscape="http://www.inkscape.org/namespaces/inkscape"
   version="1.0"
   width="1280.000000pt"
   height="1199.000000pt"
   viewBox="0 0 1280.000000 1199.000000"
   preserveAspectRatio="xMidYMid meet"
   id="svg8"
   sodipodi:docname="pc-off-red.svg"
   inkscape:version="1.0.1 (0767f8302a, 2020-10-17)">
  <defs
     id="defs12" />
  <sodipodi:namedview
     pagecolor="#ffffff"
     bordercolor="#666666"
     borderopacity="1"
     objecttolerance="10"
     gridtolerance="10"
     guidetolerance="10"
     inkscape:pageopacity="0"
     inkscape:pageshadow="2"
     inkscape:window-width="2560"
     inkscape:window-height="1343"
     id="namedview10"
     showgrid="false"
     inkscape:zoom="0.63052544"
     inkscape:cx="847.43368"
     inkscape:cy="656.10072"
     inkscape:window-x="1920"
     inkscape:window-y="27"
     inkscape:window-maximized="1"
     inkscape:current-layer="svg8" />
  <metadata
     id="metadata2">
Created by potrace 1.15, written by Peter Selinger 2001-2017
<rdf:RDF>
  <cc:Work
     rdf:about="">
    <dc:format>image/svg+xml</dc:format>
    <dc:type
       rdf:resource="http://purl.org/dc/dcmitype/StillImage" />
    <dc:title></dc:title>
  </cc:Work>
</rdf:RDF>
</metadata>
  <g
     inkscape:groupmode="layer"
     id="layer1"
     inkscape:label="Layer 1" />
  <g
     transform="translate(0.000000,1199.000000) scale(0.100000,-0.100000)"
     fill="#000000"
     stroke="none"
     id="g6">
    <path
       d="m 560,11975 c -36,-8 -107,-35 -158,-60 -169,-84 -294,-233 -364,-435 L 5,11385 V 7400 3415 l 23,-78 c 76,-263 258,-451 507,-524 56,-17 197,-18 2363,-21 l 2302,-2 v -493 c 0,-276 -5,-523 -10,-562 -40,-274 -224,-512 -480,-621 -140,-60 -179,-64 -687,-64 -485,0 -521,-3 -611,-49 C 3342,965 3282,902 3244,825 3194,723 3188,626 3224,486 3282,260 3402,75 3524,19 3564,1 3648,0 6401,0 h 2835 l 52,26 c 106,53 218,225 278,429 35,118 38,255 8,331 -46,113 -122,191 -234,236 -54,22 -66,23 -570,29 -573,6 -561,5 -716,79 -163,78 -296,211 -374,374 -75,157 -73,138 -77,743 l -4,543 2303,2 c 2166,3 2307,4 2363,21 249,73 431,261 507,524 l 23,78 v 3985 3985 l -33,95 c -82,238 -239,398 -467,480 l -70,25 -5800,2 c -4928,1 -5810,-1 -5865,-12 z M 12000,7390 c -8000,3066.667 -4000,1533.3333 0,0 z"
       id="path4"
       sodipodi:nodetypes="ccccccccccsccsccccscsccccccccccccccccccccc" />
  </g>
  <path
     style="fill:#ff0000;stroke-width:1.58598"
     d="m 490.58844,1596.6948 c -18.08828,-0.7911 -21.2403,-1.3457 -25.6924,-4.5213 -19.48862,-13.9008 -38.44842,-56.7813 -36.59008,-82.7541 0.41013,-5.7321 2.21672,-13.7475 4.01463,-17.812 4.38381,-9.9103 15.12537,-21.2633 24.89862,-26.316 l 7.99357,-4.1325 72.95503,-1.8197 c 72.01915,-1.7964 73.09218,-1.8712 83.64698,-5.8327 26.03221,-9.7705 48.11699,-29.0638 59.51875,-51.9957 11.69008,-23.5118 11.728,-23.8248 12.63612,-104.2781 l 0.81005,-71.7656 -293.20609,-0.1292 c -161.26335,-0.071 -301.866424,-0.6273 -312.451288,-1.236 -18.501198,-1.064 -19.780362,-1.372 -33.087825,-7.9661 -24.43732,-12.1092 -42.039632,-33.328 -50.9660133,-61.4373 l -3.754524,-11.8231 V 611.60402 80.332651 L 6.6234244,66.959714 C 17.99336,38.322226 32.801269,21.482566 56.695626,10.017249 69.813403,3.7228985 70.995312,3.4611571 90.911121,2.4400165 102.25673,1.8582947 453.04039,1.3288973 870.43037,1.2635779 l 758.89083,-0.1187629 12.6879,5.1593595 c 28.3281,11.5192985 46.3835,30.2275365 57.8375,59.9286695 l 4.8086,12.46925 V 612.15735 1145.6126 l -3.878,11.4017 c -5.6711,16.674 -11.5294,26.5914 -22.7786,38.5623 -11.5693,12.3113 -21.5969,19.1726 -36.4991,24.974 l -10.5923,4.1235 -308.9912,0.4672 -308.9912,0.4671 0.6495,74.8669 c 0.7037,81.1222 0.5022,79.1733 10.2008,98.6565 11.3538,22.8081 27.3261,38.5582 50.6792,49.9741 17.2294,8.4224 23.7264,9.1021 98.105,10.2635 68.9349,1.0764 72.4177,1.5513 85.5965,11.6716 4.1569,3.1921 10.1111,9.961 13.2318,15.0421 5.1293,8.3517 5.7374,10.5676 6.3361,23.0896 0.516,10.7928 -0.093,16.6324 -2.7586,26.4462 -7.0503,25.9581 -23.885,52.0918 -38.2904,59.4409 -6.0137,3.0679 -11.2315,3.1082 -365.78465,2.8245 -197.82613,-0.1586 -368.96186,-0.6936 -380.30161,-1.1895 z"
     id="path59"
     transform="scale(0.75000002)" />
</svg>
