<?xml version="1.0" encoding="UTF-8" standalone="no"?>
<svg
   xmlns:dc="http://purl.org/dc/elements/1.1/"
   xmlns:cc="http://creativecommons.org/ns#"
   xmlns:rdf="http://www.w3.org/1999/02/22-rdf-syntax-ns#"
   xmlns:svg="http://www.w3.org/2000/svg"
   xmlns="http://www.w3.org/2000/svg"
   xmlns:sodipodi="http://sodipodi.sourceforge.net/DTD/sodipodi-0.dtd"
   xmlns:inkscape="http://www.inkscape.org/namespaces/inkscape"
   version="1.0"
   width="90.000031pt"
   height="82.500053pt"
   viewBox="0 0 90.000028 82.500055"
   preserveAspectRatio="xMidYMid meet"
   id="svg8"
   sodipodi:docname="pc-on.svg"
   inkscape:version="1.0.1 (0767f8302a, 2020-10-17)">
  <defs
     id="defs12" />
  <sodipodi:namedview
     pagecolor="#ffffff"
     bordercolor="#666666"
     borderopacity="1"
     objecttolerance="10"
     gridtolerance="10"
     guidetolerance="10"
     inkscape:pageopacity="0"
     inkscape:pageshadow="2"
     inkscape:window-width="2560"
     inkscape:window-height="1370"
     id="namedview10"
     showgrid="false"
     inkscape:zoom="8"
     inkscape:cx="50.444629"
     inkscape:cy="26.289884"
     inkscape:window-x="1920"
     inkscape:window-y="0"
     inkscape:window-maximized="1"
     inkscape:current-layer="svg8"
     inkscape:document-rotation="0"
     showguides="true"
     inkscape:guide-bbox="true">
    <sodipodi:guide
       position="45.008252,83.256766"
       orientation="1,0"
       id="guide997" />
    <sodipodi:guide
       position="27.301625,64.907821"
       orientation="0,-1"
       id="guide1017" />
    <sodipodi:guide
       position="31.759768,25.12971"
       orientation="1,0"
       id="guide1019" />
  </sodipodi:namedview>
  <metadata
     id="metadata2">
Created by potrace 1.15, written by Peter Selinger 2001-2017
<rdf:RDF>
  <cc:Work
     rdf:about="">
    <dc:format>image/svg+xml</dc:format>
    <dc:type
       rdf:resource="http://purl.org/dc/dcmitype/StillImage" />
    <dc:title></dc:title>
  </cc:Work>
</rdf:RDF>
</metadata>
  <g
     inkscape:groupmode="layer"
     id="layer3"
     inkscape:label="Layer 2"
     transform="translate(-1153.875,-1081.26)" />
  <g
     inkscape:groupmode="layer"
     id="layer1"
     inkscape:label="Layer 1"
     transform="translate(-1153.875,-1081.26)" />
  <g
     transform="matrix(0.00703675,0,0,-0.00688233,-0.03518375,82.500055)"
     fill="#000000"
     stroke="none"
     id="g6"
     style="fill:#dddddd;fill-opacity:1">
    <path
       d="m 560,11975 c -36,-8 -107,-35 -158,-60 -169,-84 -294,-233 -364,-435 L 5,11385 V 7400 3415 l 23,-78 c 76,-263 258,-451 507,-524 56,-17 197,-18 2363,-21 l 2302,-2 v -493 c 0,-276 -5,-523 -10,-562 -40,-274 -224,-512 -480,-621 -140,-60 -179,-64 -687,-64 -485,0 -521,-3 -611,-49 C 3342,965 3282,902 3244,825 3194,723 3188,626 3224,486 3282,260 3402,75 3524,19 3564,1 3648,0 6401,0 h 2835 l 52,26 c 106,53 218,225 278,429 35,118 38,255 8,331 -46,113 -122,191 -234,236 -54,22 -66,23 -570,29 -573,6 -561,5 -716,79 -163,78 -296,211 -374,374 -75,157 -73,138 -77,743 l -4,543 2303,2 c 2166,3 2307,4 2363,21 249,73 431,261 507,524 l 23,78 v 3985 3985 l -33,95 c -82,238 -239,398 -467,480 l -70,25 -5800,2 c -4928,1 -5810,-1 -5865,-12 z M 12000,7390 V 3590 H 6400 800 V 7390 L 772.71969,11198.516 6400,11190 h 5600 z"
       id="path4"
       sodipodi:nodetypes="ccccccccccsccsccccscscccccccccccccccccccccccccccc"
       style="fill:#dddddd;fill-opacity:1" />
  </g>
  <path
     d="m 42.551762,38.500015 -5.625265,-5.398766 1.743832,-1.793755 3.850182,3.67126 8.776664,-8.978775 1.777583,1.761255 z M 31.67125,25.374977 c 1.387566,-2.697508 3.597669,-4.981264 6.455304,-6.452518 l 0.957544,2.310006 c -2.223854,1.192504 -3.962686,2.992509 -5.093989,5.102514 z m 7.415349,17.883801 C 36.97525,42.127525 35.177665,40.39002 33.983859,38.165014 l -2.310109,0.956253 c 1.468819,2.858757 3.753927,5.068763 6.452804,6.458767 z m -6.059035,-7.403772 c -0.730035,-2.416256 -0.686283,-4.916263 0.0063,-7.20877 l -2.321362,-0.961253 c -0.467522,1.463755 -0.712534,3.001259 -0.712534,4.560014 0,1.518754 0.232511,3.057508 0.716284,4.567512 z m 7.410349,-17.8888 0.957545,2.311257 c 2.416363,-0.730002 4.917731,-0.686252 7.209089,0.0063 l 0.962545,-2.320007 c -1.466318,-0.468718 -3.002641,-0.713718 -4.561464,-0.713718 -1.518822,0 -3.056394,0.2325 -4.567715,0.716252 z m 10.476744,3.273759 c 2.110098,1.131253 3.908933,2.868758 5.10149,5.092515 l 2.310108,-0.957503 c -1.470068,-2.857508 -3.753926,-5.066264 -6.451554,-6.456268 z m 6.059035,7.402522 c 0.730034,2.416256 0.686282,4.917513 -0.0063,7.21002 l 2.32011,0.962503 c 0.468771,-1.463755 0.712533,-3.001259 0.712533,-4.560013 0,-1.518755 -0.232511,-3.058759 -0.716283,-4.570014 z m -0.962545,9.521276 c -1.131304,2.110007 -2.868886,3.908761 -5.092741,5.102515 l 0.957546,2.311257 c 2.857634,-1.470004 5.067739,-3.755012 6.455304,-6.452518 z m -7.4041,6.058767 c -2.417613,0.730003 -4.917731,0.687502 -7.210339,-0.0063 l -0.962545,2.321256 c 1.465069,0.467552 3.002642,0.712552 4.562714,0.712552 1.518822,0 3.056394,-0.2325 4.566465,-0.715002 z"
     id="path986"
     style="fill:#dddddf;fill-opacity:1;stroke-width:1.25003" />
</svg>
