<?xml version="1.0" encoding="UTF-8" standalone="no"?>
<svg
   xmlns:dc="http://purl.org/dc/elements/1.1/"
   xmlns:cc="http://creativecommons.org/ns#"
   xmlns:rdf="http://www.w3.org/1999/02/22-rdf-syntax-ns#"
   xmlns:svg="http://www.w3.org/2000/svg"
   xmlns="http://www.w3.org/2000/svg"
   xmlns:sodipodi="http://sodipodi.sourceforge.net/DTD/sodipodi-0.dtd"
   xmlns:inkscape="http://www.inkscape.org/namespaces/inkscape"
   version="1.0"
   width="151.71255pt"
   height="142.19022pt"
   viewBox="0 0 151.71255 142.19022"
   preserveAspectRatio="xMidYMid meet"
   id="svg8"
   sodipodi:docname="pc-on-unknown.svg"
   inkscape:version="1.0.1 (0767f8302a, 2020-10-17)">
  <defs
     id="defs12" />
  <sodipodi:namedview
     pagecolor="#ffffff"
     bordercolor="#666666"
     borderopacity="1"
     objecttolerance="10"
     gridtolerance="10"
     guidetolerance="10"
     inkscape:pageopacity="0"
     inkscape:pageshadow="2"
     inkscape:window-width="2560"
     inkscape:window-height="1343"
     id="namedview10"
     showgrid="false"
     inkscape:zoom="3.5667905"
     inkscape:cx="109.03778"
     inkscape:cy="143.32063"
     inkscape:window-x="1920"
     inkscape:window-y="27"
     inkscape:window-maximized="1"
     inkscape:current-layer="svg8"
     inkscape:document-rotation="0"
     showguides="true"
     inkscape:guide-bbox="true">
    <sodipodi:guide
       position="76.329125,98.66369"
       orientation="1,0"
       id="guide1169" />
  </sodipodi:namedview>
  <metadata
     id="metadata2">
Created by potrace 1.15, written by Peter Selinger 2001-2017
<rdf:RDF>
  <cc:Work
     rdf:about="">
    <dc:format>image/svg+xml</dc:format>
    <dc:type
       rdf:resource="http://purl.org/dc/dcmitype/StillImage" />
    <dc:title></dc:title>
  </cc:Work>
</rdf:RDF>
</metadata>
  <g
     inkscape:groupmode="layer"
     id="layer3"
     inkscape:label="Layer 2"
     transform="translate(-1127.7874,-1056.8098)" />
  <g
     inkscape:groupmode="layer"
     id="layer1"
     inkscape:label="Layer 1"
     transform="translate(-1127.7874,-1056.8098)" />
  <g
     transform="matrix(0.01186181,0,0,-0.01186181,-0.05930905,142.19021)"
     fill="#000000"
     stroke="none"
     id="g6"
     style="fill:#ffffff">
    <path
       d="m 560,11975 c -36,-8 -107,-35 -158,-60 -169,-84 -294,-233 -364,-435 L 5,11385 V 7400 3415 l 23,-78 c 76,-263 258,-451 507,-524 56,-17 197,-18 2363,-21 l 2302,-2 v -493 c 0,-276 -5,-523 -10,-562 -40,-274 -224,-512 -480,-621 -140,-60 -179,-64 -687,-64 -485,0 -521,-3 -611,-49 C 3342,965 3282,902 3244,825 3194,723 3188,626 3224,486 3282,260 3402,75 3524,19 3564,1 3648,0 6401,0 h 2835 l 52,26 c 106,53 218,225 278,429 35,118 38,255 8,331 -46,113 -122,191 -234,236 -54,22 -66,23 -570,29 -573,6 -561,5 -716,79 -163,78 -296,211 -374,374 -75,157 -73,138 -77,743 l -4,543 2303,2 c 2166,3 2307,4 2363,21 249,73 431,261 507,524 l 23,78 v 3985 3985 l -33,95 c -82,238 -239,398 -467,480 l -70,25 -5800,2 c -4928,1 -5810,-1 -5865,-12 z M 12000,7390 V 3590 H 6400 800 V 7390 L 772.71969,11198.516 6400,11190 h 5600 z"
       id="path4"
       sodipodi:nodetypes="ccccccccccsccsccccscscccccccccccccccccccccccccccc"
       style="fill:#ffcc00" />
  </g>
  <g
     id="g1167"
     transform="matrix(0.06756116,0,0,0.06756116,43.952645,18.651788)"
     style="fill:#d40000">
    <g
       id="g1110"
       style="fill:#d40000">
	<path
   d="m 502.29,788.199 h -47 c -33.1,0 -60,26.9 -60,60 v 64.9 c 0,33.1 26.9,60 60,60 h 47 c 33.101,0 60,-26.9 60,-60 v -64.9 c 0,-33.199 -26.899,-60 -60,-60 z"
   id="path1106"
   style="fill:#d40000" />

	<path
   d="m 170.89,285.8 86.7,10.8 c 27.5,3.4 53.6,-12.4 63.5,-38.3 12.5,-32.7 29.9,-58.5 52.2,-77.3 31.601,-26.6 70.9,-40 117.9,-40 48.7,0 87.5,12.8 116.3,38.3 28.8,25.6 43.1,56.2 43.1,92.1 0,25.8 -8.1,49.4 -24.3,70.8 -10.5,13.6 -42.8,42.2 -96.7,85.9 -54,43.7 -89.899,83.099 -107.899,118.099 -18.4,35.801 -24.8,75.5 -26.4,115.301 -1.399,34.1 25.8,62.5 60,62.5 h 49 c 31.2,0 57,-23.9 59.8,-54.9 2,-22.299 5.7,-39.199 11.301,-50.699 9.399,-19.701 33.699,-45.701 72.699,-78.1 C 723.59,477.8 772.79,428.4 795.891,392 c 23,-36.3 34.6,-74.8 34.6,-115.5 0,-73.5 -31.3,-138 -94,-193.4 -62.6,-55.4 -147,-83.1 -253,-83.1 -100.8,0 -182.1,27.3 -244.1,82 -52.8,46.6 -84.9,101.8 -96.2,165.5 -3.501,18.6 9.199,36 27.699,38.3 z"
   id="path1108"
   style="fill:#d40000" />

</g>
    <g
       id="g1112"
       style="fill:#d40000">
</g>
    <g
       id="g1114"
       style="fill:#d40000">
</g>
    <g
       id="g1116"
       style="fill:#d40000">
</g>
    <g
       id="g1118"
       style="fill:#d40000">
</g>
    <g
       id="g1120"
       style="fill:#d40000">
</g>
    <g
       id="g1122"
       style="fill:#d40000">
</g>
    <g
       id="g1124"
       style="fill:#d40000">
</g>
    <g
       id="g1126"
       style="fill:#d40000">
</g>
    <g
       id="g1128"
       style="fill:#d40000">
</g>
    <g
       id="g1130"
       style="fill:#d40000">
</g>
    <g
       id="g1132"
       style="fill:#d40000">
</g>
    <g
       id="g1134"
       style="fill:#d40000">
</g>
    <g
       id="g1136"
       style="fill:#d40000">
</g>
    <g
       id="g1138"
       style="fill:#d40000">
</g>
    <g
       id="g1140"
       style="fill:#d40000">
</g>
  </g>
</svg>
