<?xml version="1.0" encoding="UTF-8" standalone="no"?>
<svg
   xmlns:dc="http://purl.org/dc/elements/1.1/"
   xmlns:cc="http://creativecommons.org/ns#"
   xmlns:rdf="http://www.w3.org/1999/02/22-rdf-syntax-ns#"
   xmlns:svg="http://www.w3.org/2000/svg"
   xmlns="http://www.w3.org/2000/svg"
   xmlns:sodipodi="http://sodipodi.sourceforge.net/DTD/sodipodi-0.dtd"
   xmlns:inkscape="http://www.inkscape.org/namespaces/inkscape"
   version="1.0"
   width="151.71255pt"
   height="142.19022pt"
   viewBox="0 0 151.71255 142.19022"
   preserveAspectRatio="xMidYMid meet"
   id="svg8"
   sodipodi:docname="pc-on-green.svg"
   inkscape:version="1.0.1 (0767f8302a, 2020-10-17)">
  <defs
     id="defs12" />
  <sodipodi:namedview
     pagecolor="#ffffff"
     bordercolor="#666666"
     borderopacity="1"
     objecttolerance="10"
     gridtolerance="10"
     guidetolerance="10"
     inkscape:pageopacity="0"
     inkscape:pageshadow="2"
     inkscape:window-width="2560"
     inkscape:window-height="1343"
     id="namedview10"
     showgrid="false"
     inkscape:zoom="0.63052544"
     inkscape:cx="-541.29939"
     inkscape:cy="-182.02659"
     inkscape:window-x="1920"
     inkscape:window-y="27"
     inkscape:window-maximized="1"
     inkscape:current-layer="svg8"
     inkscape:document-rotation="0" />
  <metadata
     id="metadata2">
Created by potrace 1.15, written by Peter Selinger 2001-2017
<rdf:RDF>
  <cc:Work
     rdf:about="">
    <dc:format>image/svg+xml</dc:format>
    <dc:type
       rdf:resource="http://purl.org/dc/dcmitype/StillImage" />
    <dc:title />
  </cc:Work>
</rdf:RDF>
</metadata>
  <g
     inkscape:groupmode="layer"
     id="layer3"
     inkscape:label="Layer 2"
     transform="translate(-1127.7874,-1056.8098)" />
  <g
     inkscape:groupmode="layer"
     id="layer1"
     inkscape:label="Layer 1"
     transform="translate(-1127.7874,-1056.8098)" />
  <g
     transform="matrix(0.01186181,0,0,-0.01186181,-0.05930905,142.19021)"
     fill="#000000"
     stroke="none"
     id="g6"
     style="fill:#ffffff">
    <path
       d="m 560,11975 c -36,-8 -107,-35 -158,-60 -169,-84 -294,-233 -364,-435 L 5,11385 V 7400 3415 l 23,-78 c 76,-263 258,-451 507,-524 56,-17 197,-18 2363,-21 l 2302,-2 v -493 c 0,-276 -5,-523 -10,-562 -40,-274 -224,-512 -480,-621 -140,-60 -179,-64 -687,-64 -485,0 -521,-3 -611,-49 C 3342,965 3282,902 3244,825 3194,723 3188,626 3224,486 3282,260 3402,75 3524,19 3564,1 3648,0 6401,0 h 2835 l 52,26 c 106,53 218,225 278,429 35,118 38,255 8,331 -46,113 -122,191 -234,236 -54,22 -66,23 -570,29 -573,6 -561,5 -716,79 -163,78 -296,211 -374,374 -75,157 -73,138 -77,743 l -4,543 2303,2 c 2166,3 2307,4 2363,21 249,73 431,261 507,524 l 23,78 v 3985 3985 l -33,95 c -82,238 -239,398 -467,480 l -70,25 -5800,2 c -4928,1 -5810,-1 -5865,-12 z M 12000,7390 V 3590 H 6400 800 V 7390 L 772.71969,11198.516 6400,11190 h 5600 z"
       id="path4"
       sodipodi:nodetypes="ccccccccccsccsccccscscccccccccccccccccccccccccccc"
       style="fill:#00ff00" />
  </g>
</svg>
