<?xml version="1.0" standalone="no"?>
<!DOCTYPE svg PUBLIC "-//W3C//DTD SVG 20010904//EN"
 "http://www.w3.org/TR/2001/REC-SVG-20010904/DTD/svg10.dtd">
<svg version="1.0" xmlns="http://www.w3.org/2000/svg"
 width="1280.000000pt" height="1199.000000pt" viewBox="0 0 1280.000000 1199.000000"
 preserveAspectRatio="xMidYMid meet">
<metadata>
Created by potrace 1.15, written by Peter Selinger 2001-2017
</metadata>
<g transform="translate(0.000000,1199.000000) scale(0.100000,-0.100000)"
fill="#000000" stroke="none">
<path d="M560 11975 c-36 -8 -107 -35 -158 -60 -169 -84 -294 -233 -364 -435
l-33 -95 0 -3985 0 -3985 23 -78 c76 -263 258 -451 507 -524 56 -17 197 -18
2363 -21 l2302 -2 0 -493 c0 -276 -5 -523 -10 -562 -40 -274 -224 -512 -480
-621 -140 -60 -179 -64 -687 -64 -485 0 -521 -3 -611 -49 -70 -36 -130 -99
-168 -176 -50 -102 -56 -199 -20 -339 58 -226 178 -411 300 -467 40 -18 124
-19 2877 -19 l2835 0 52 26 c106 53 218 225 278 429 35 118 38 255 8 331 -46
113 -122 191 -234 236 -54 22 -66 23 -570 29 -573 6 -561 5 -716 79 -163 78
-296 211 -374 374 -75 157 -73 138 -77 743 l-4 543 2303 2 c2166 3 2307 4
2363 21 249 73 431 261 507 524 l23 78 0 3985 0 3985 -33 95 c-82 238 -239
398 -467 480 l-70 25 -5800 2 c-4928 1 -5810 -1 -5865 -12z m11440 -4585 l0
-3800 -5600 0 -5600 0 0 3800 0 3800 5600 0 5600 0 0 -3800z"/>
</g>
</svg>
