<?xml version="1.0" encoding="UTF-8" standalone="no"?>
<svg
   xmlns:dc="http://purl.org/dc/elements/1.1/"
   xmlns:cc="http://creativecommons.org/ns#"
   xmlns:rdf="http://www.w3.org/1999/02/22-rdf-syntax-ns#"
   xmlns:svg="http://www.w3.org/2000/svg"
   xmlns="http://www.w3.org/2000/svg"
   xmlns:sodipodi="http://sodipodi.sourceforge.net/DTD/sodipodi-0.dtd"
   xmlns:inkscape="http://www.inkscape.org/namespaces/inkscape"
   version="1.0"
   width="151.71255pt"
   height="142.19022pt"
   viewBox="0 0 151.71255 142.19022"
   preserveAspectRatio="xMidYMid meet"
   id="svg8"
   sodipodi:docname="server.svg"
   inkscape:version="1.0.1 (0767f8302a, 2020-10-17)">
  <defs
     id="defs12" />
  <sodipodi:namedview
     pagecolor="#ffffff"
     bordercolor="#666666"
     borderopacity="1"
     objecttolerance="10"
     gridtolerance="10"
     guidetolerance="10"
     inkscape:pageopacity="0"
     inkscape:pageshadow="2"
     inkscape:window-width="1280"
     inkscape:window-height="1343"
     id="namedview10"
     showgrid="false"
     inkscape:zoom="11.313709"
     inkscape:cx="116.03211"
     inkscape:cy="46.958361"
     inkscape:window-x="3840"
     inkscape:window-y="27"
     inkscape:window-maximized="0"
     inkscape:current-layer="svg8"
     inkscape:document-rotation="0"
     showguides="true"
     inkscape:guide-bbox="true"
     inkscape:lockguides="false">
    <sodipodi:guide
       position="75.856993,117.74158"
       orientation="1,0"
       id="guide1169"
       inkscape:locked="false" />
    <sodipodi:guide
       position="125.62039,117.74158"
       orientation="0,-1"
       id="guide853"
       inkscape:locked="false" />
    <sodipodi:guide
       position="26.087951,24.444534"
       orientation="0,-1"
       id="guide855"
       inkscape:locked="false" />
    <sodipodi:guide
       position="26.087951,24.444534"
       orientation="1,0"
       id="guide857"
       inkscape:locked="false" />
    <sodipodi:guide
       position="125.62039,117.74158"
       orientation="1,0"
       id="guide859"
       inkscape:locked="false" />
    <sodipodi:guide
       position="7.2142888,71.101214"
       orientation="0,-1"
       id="guide861"
       inkscape:locked="false" />
    <sodipodi:guide
       position="10.673346,2.5981548"
       orientation="0.70710678,-0.70710678"
       id="guide863"
       inkscape:locked="false" />
    <sodipodi:guide
       position="29.922444,28.312156"
       orientation="0.70710678,-0.70710678"
       id="guide867" />
    <sodipodi:guide
       position="138.29839,5.5229816"
       orientation="-0.70710678,-0.70710678"
       id="guide869" />
    <sodipodi:guide
       position="75.856993,74.246705"
       orientation="-0.70710678,-0.70710678"
       id="guide871" />
  </sodipodi:namedview>
  <metadata
     id="metadata2">
Created by potrace 1.15, written by Peter Selinger 2001-2017
<rdf:RDF>
  <cc:Work
     rdf:about="">
    <dc:format>image/svg+xml</dc:format>
    <dc:type
       rdf:resource="http://purl.org/dc/dcmitype/StillImage" />
    <dc:title></dc:title>
  </cc:Work>
</rdf:RDF>
</metadata>
  <g
     inkscape:groupmode="layer"
     id="layer3"
     inkscape:label="Layer 2"
     transform="translate(-1127.7874,-1056.8098)" />
  <g
     inkscape:groupmode="layer"
     id="layer1"
     inkscape:label="Layer 1"
     transform="translate(-1127.7874,-1056.8098)" />
  <g
     id="g2038"
     transform="matrix(0.87989518,0,0,0.87989518,29.118837,24.448636)">
    <g
       id="g1982">
	<path
   d="m 71.333,0 h -36.5 c -2.762,0 -5,2.238 -5,5 v 96.166 c 0,2.762 2.238,5 5,5 h 36.5 c 2.762,0 5,-2.238 5,-5 V 5 c 0,-2.762 -2.238,-5 -5,-5 z m 1.217,100.732 c 0,1.066 -0.865,1.934 -1.934,1.934 H 35.382 c -1.066,0 -2.432,-0.866 -2.432,-1.934 l -0.5,-3.383 h 40.6 z M 71.763,25.144 v 4.605 H 33.562 V 25.144 Z M 33.562,18.522 v -4.606 h 38.201 v 4.606 z M 37.167,71 c -1.565,0 -2.833,-1.27 -2.833,-2.834 0,-1.564 1.268,-2.833 2.833,-2.833 1.565,0 2.833,1.269 2.833,2.833 C 40,69.73 38.732,71 37.167,71 Z m 2.333,4.833 c 0,1.288 -1.044,2.333 -2.333,2.333 -1.289,0 -2.333,-1.045 -2.333,-2.333 0,-1.289 1.044,-2.334 2.333,-2.334 1.289,0 2.333,1.045 2.333,2.334 z M 32.45,8.857 32.95,5.474 c 0,-1.068 0.865,-1.934 1.932,-1.934 h 35.234 c 1.068,0 2.434,0.865 2.434,1.934 l 0.5,3.383 z"
   id="path1980" />

</g>
    <g
       id="g1984">
</g>
    <g
       id="g1986">
</g>
    <g
       id="g1988">
</g>
    <g
       id="g1990">
</g>
    <g
       id="g1992">
</g>
    <g
       id="g1994">
</g>
    <g
       id="g1996">
</g>
    <g
       id="g1998">
</g>
    <g
       id="g2000">
</g>
    <g
       id="g2002">
</g>
    <g
       id="g2004">
</g>
    <g
       id="g2006">
</g>
    <g
       id="g2008">
</g>
    <g
       id="g2010">
</g>
    <g
       id="g2012">
</g>
  </g>
</svg>
