<?xml version="1.0" encoding="UTF-8" standalone="no"?>
<svg
   xmlns:dc="http://purl.org/dc/elements/1.1/"
   xmlns:cc="http://creativecommons.org/ns#"
   xmlns:rdf="http://www.w3.org/1999/02/22-rdf-syntax-ns#"
   xmlns:svg="http://www.w3.org/2000/svg"
   xmlns="http://www.w3.org/2000/svg"
   xmlns:sodipodi="http://sodipodi.sourceforge.net/DTD/sodipodi-0.dtd"
   xmlns:inkscape="http://www.inkscape.org/namespaces/inkscape"
   version="1.0"
   width="18pt"
   height="18pt"
   viewBox="0 0 17.999999 18"
   preserveAspectRatio="xMidYMid meet"
   id="svg8"
   sodipodi:docname="watchXBtn.svg"
   inkscape:version="1.0.1 (0767f8302a, 2020-10-17)">
  <defs
     id="defs12" />
  <sodipodi:namedview
     pagecolor="#ffffff"
     bordercolor="#666666"
     borderopacity="1"
     objecttolerance="10"
     gridtolerance="10"
     guidetolerance="10"
     inkscape:pageopacity="0"
     inkscape:pageshadow="2"
     inkscape:window-width="1920"
     inkscape:window-height="983"
     id="namedview10"
     showgrid="false"
     inkscape:zoom="22.627417"
     inkscape:cx="7.8300859"
     inkscape:cy="12.663772"
     inkscape:window-x="1920"
     inkscape:window-y="1467"
     inkscape:window-maximized="1"
     inkscape:current-layer="svg8"
     inkscape:document-rotation="0"
     showguides="true"
     inkscape:guide-bbox="true">
    <sodipodi:guide
       position="-34.583537,36.568635"
       orientation="0,-1"
       id="guide1017" />
    <sodipodi:guide
       position="-30.125395,-3.2094745"
       orientation="1,0"
       id="guide1019" />
  </sodipodi:namedview>
  <metadata
     id="metadata2">
Created by potrace 1.15, written by Peter Selinger 2001-2017
<rdf:RDF>
  <cc:Work
     rdf:about="">
    <dc:format>image/svg+xml</dc:format>
    <dc:type
       rdf:resource="http://purl.org/dc/dcmitype/StillImage" />
    <dc:title></dc:title>
  </cc:Work>
</rdf:RDF>
</metadata>
  <g
     inkscape:groupmode="layer"
     id="layer3"
     inkscape:label="Layer 2"
     transform="translate(-1215.7602,-1121.9209)" />
  <g
     inkscape:groupmode="layer"
     id="layer1"
     inkscape:label="Layer 1"
     transform="translate(-1215.7602,-1121.9209)" />
  <path
     d="M 12.0185,4.2358391 C 11.843748,3.7623966 11.392616,3.4228076 10.859064,3.4228076 c -0.804355,0 -1.4333383,0.7708927 -1.1798859,1.6000353 C 10.367651,4.7780661 11.132966,4.339327 12.0185,4.2358391 Z M 9.619688,9.6196888 C 9.619688,9.277621 9.3426875,9.0000007 9,9.0000007 c -0.3426875,0 -0.619688,0.2776203 -0.619688,0.6196881 0,0.342067 0.2770005,0.6196872 0.619688,0.6196872 0.3426875,0 0.619688,-0.2776202 0.619688,-0.6196872 z m 3.295501,3.0197392 c 0.906604,-0.192723 1.531249,-0.923335 1.329851,-1.999733 0.866943,0.940066 -0.09605,2.447148 -1.329851,1.999733 z m -8.6762522,0 c 0.9066036,-0.192723 1.5312491,-0.923335 1.3298505,-1.999733 0.8669436,0.940066 -0.096671,2.447148 -1.3298505,1.999733 z M 7.1409359,3.4228076 c -0.5335514,0 -0.9846843,0.339589 -1.1594363,0.8130315 0.8855342,0.1041076 1.6508489,0.542227 2.3393223,0.7870038 C 8.5742743,4.1937003 7.945291,3.4228076 7.1409359,3.4228076 Z m 0.7027262,3.4045669 c 0.7485832,0.2453964 1.5597548,0.2466358 2.3120559,0 1.620484,-0.5292136 2.178204,-1.2307005 2.758851,-0.2051168 0.242918,0.4282045 0.825425,1.448211 1.031781,1.8181647 -1.76859,-0.3563206 -3.452902,0.8774783 -3.680947,2.6361526 -0.7640754,-0.384207 -1.7314084,-0.400939 -2.530806,0 C 7.5059321,9.317281 5.8222397,8.0841018 4.0530304,8.4404224 4.3095812,7.9830927 4.7861213,7.1508516 5.084811,6.6228774 5.664839,5.5972937 6.2213188,6.2969215 7.8436621,6.8273745 Z M 12.287445,4.859865 c -0.863225,0 -1.772308,0.5459451 -2.5171728,0.7894825 -0.5031867,0.164837 -1.0441743,0.162978 -1.5405444,0 C 7.4854824,5.4058101 6.5757804,4.859865 5.712555,4.859865 c -0.6184487,0 -1.2133492,0.2800989 -1.7066209,1.152 -1.4909694,2.6367726 -2.4421906,4.143853 -2.4421906,5.466887 0,1.710959 1.3868619,3.09844 3.0984402,3.09844 2.50292,0 2.5754235,-2.554973 4.3378163,-2.554973 1.762393,0 1.834896,2.554973 4.337816,2.554973 1.711579,0 3.09844,-1.387481 3.09844,-3.09844 0,-1.323034 -0.951221,-2.8301144 -2.44219,-5.4662673 C 13.500175,5.1399639 12.905894,4.859865 12.287445,4.859865 Z m 1.050371,8.477951 c -1.024964,0 -1.859064,-0.8341 -1.859064,-1.859064 0,-1.024964 0.8341,-1.8590632 1.859064,-1.8590632 1.024964,0 1.859064,0.8340992 1.859064,1.8590632 0,1.024964 -0.8341,1.859064 -1.859064,1.859064 z m -8.6756323,0 c -1.024964,0 -1.8590641,-0.8341 -1.8590641,-1.859064 0,-1.024964 0.8341001,-1.8590632 1.8590641,-1.8590632 1.0249641,0 1.8590641,0.8340992 1.8590641,1.8590632 0,1.024964 -0.8341,1.859064 -1.8590641,1.859064 z"
     id="path918"
     style="fill:#dddddd;fill-opacity:1;stroke-width:0.619688" />
  <path
     style="fill:#bb0000;fill-opacity:1;stroke:none;stroke-width:0.75;stroke-opacity:1"
     id="path1043"
     d="M 16.061585,16.469707 C 15.740286,15.74062 15.293347,15.074584 14.859892,14.409202 13.783638,12.788336 12.528863,11.295612 11.20836,9.8697509 10.856641,9.4899699 10.495612,9.1189179 10.139237,8.7435009 8.7404194,7.2940589 7.2637211,5.9210763 5.7319241,4.6134104 4.8913436,3.8958228 4.6407927,3.7046594 3.7974175,3.0275922 3.5139838,2.8090098 3.2305501,2.5904273 2.9471164,2.3718449 2.4088556,1.9568144 1.8219138,2.7180302 2.3601747,3.1330607 v 0 c 0.2785157,0.2147133 0.5570315,0.4294265 0.8355472,0.6441398 0.8308717,0.6668173 1.076729,0.8543078 1.9050392,1.5611813 1.508866,1.2876544 2.9635573,2.6395766 4.3414025,4.0669641 0.3509275,0.369534 0.7063914,0.7348111 1.0527814,1.1086021 1.286801,1.388589 2.510626,2.841567 3.559691,4.420147 0.398529,0.61101 0.809562,1.221788 1.112545,1.887739 0.248991,0.632438 1.143394,0.280312 0.894404,-0.352127 z" />
</svg>
