<?xml version="1.0" encoding="UTF-8" standalone="no"?>
<svg
   xmlns:dc="http://purl.org/dc/elements/1.1/"
   xmlns:cc="http://creativecommons.org/ns#"
   xmlns:rdf="http://www.w3.org/1999/02/22-rdf-syntax-ns#"
   xmlns:svg="http://www.w3.org/2000/svg"
   xmlns="http://www.w3.org/2000/svg"
   xmlns:sodipodi="http://sodipodi.sourceforge.net/DTD/sodipodi-0.dtd"
   xmlns:inkscape="http://www.inkscape.org/namespaces/inkscape"
   version="1.0"
   width="151.71255pt"
   height="142.19022pt"
   viewBox="0 0 151.71255 142.19022"
   preserveAspectRatio="xMidYMid meet"
   id="svg8"
   sodipodi:docname="wifi.svg"
   inkscape:version="1.0.1 (0767f8302a, 2020-10-17)">
  <defs
     id="defs12" />
  <sodipodi:namedview
     pagecolor="#ffffff"
     bordercolor="#666666"
     borderopacity="1"
     objecttolerance="10"
     gridtolerance="10"
     guidetolerance="10"
     inkscape:pageopacity="0"
     inkscape:pageshadow="2"
     inkscape:window-width="2560"
     inkscape:window-height="1343"
     id="namedview10"
     showgrid="false"
     inkscape:zoom="5.6568543"
     inkscape:cx="174.71857"
     inkscape:cy="115.71126"
     inkscape:window-x="2560"
     inkscape:window-y="27"
     inkscape:window-maximized="1"
     inkscape:current-layer="svg8"
     inkscape:document-rotation="0"
     showguides="true"
     inkscape:guide-bbox="true"
     inkscape:lockguides="false">
    <sodipodi:guide
       position="75.856993,117.74158"
       orientation="1,0"
       id="guide1169"
       inkscape:locked="false" />
    <sodipodi:guide
       position="125.62039,117.74158"
       orientation="0,-1"
       id="guide853"
       inkscape:locked="false" />
    <sodipodi:guide
       position="26.087951,24.444534"
       orientation="0,-1"
       id="guide855"
       inkscape:locked="false" />
    <sodipodi:guide
       position="26.087951,24.444534"
       orientation="1,0"
       id="guide857"
       inkscape:locked="false" />
    <sodipodi:guide
       position="125.62039,117.74158"
       orientation="1,0"
       id="guide859"
       inkscape:locked="false" />
    <sodipodi:guide
       position="7.2142888,71.101214"
       orientation="0,-1"
       id="guide861"
       inkscape:locked="false" />
    <sodipodi:guide
       position="10.673346,2.5981548"
       orientation="0.70710678,-0.70710678"
       id="guide863"
       inkscape:locked="false" />
    <sodipodi:guide
       position="29.922444,28.312156"
       orientation="0.70710678,-0.70710678"
       id="guide867" />
    <sodipodi:guide
       position="138.29839,5.5229816"
       orientation="-0.70710678,-0.70710678"
       id="guide869" />
    <sodipodi:guide
       position="75.856993,74.246705"
       orientation="-0.70710678,-0.70710678"
       id="guide871" />
  </sodipodi:namedview>
  <metadata
     id="metadata2">
Created by potrace 1.15, written by Peter Selinger 2001-2017
<rdf:RDF>
  <cc:Work
     rdf:about="">
    <dc:format>image/svg+xml</dc:format>
    <dc:type
       rdf:resource="http://purl.org/dc/dcmitype/StillImage" />
    <dc:title></dc:title>
  </cc:Work>
</rdf:RDF>
</metadata>
  <g
     inkscape:groupmode="layer"
     id="layer3"
     inkscape:label="Layer 2"
     transform="translate(-1127.7874,-1056.8098)" />
  <g
     inkscape:groupmode="layer"
     id="layer1"
     inkscape:label="Layer 1"
     transform="translate(-1127.7874,-1056.8098)" />
  <g
     transform="matrix(0.00731026,0,0,-0.00731026,38.283112,117.92888)"
     fill="#000000"
     stroke="none"
     id="g990">
    <path
       d="m 2599,12787 c -74,-28 -326,-191 -529,-342 C 1600,12094 1195,11665 866,11170 715,10943 646,10824 525,10578 86,9689 -83,8678 41,7678 112,7102 274,6563 535,6035 867,5363 1321,4796 1915,4309 c 271,-222 741,-523 859,-550 184,-41 347,164 267,336 -26,57 -82,104 -191,165 -52,29 -178,108 -280,175 C 930,5527 154,7521 625,9435 c 57,230 100,367 186,585 366,933 1038,1739 1884,2261 65,41 135,91 155,111 37,38 70,116 70,168 0,39 -26,108 -56,147 -56,74 -181,111 -265,80 z"
       id="path976" />
    <path
       d="m 7624,12716 c -50,-23 -98,-74 -122,-129 -20,-47 -15,-136 12,-192 28,-61 45,-76 161,-151 621,-398 1162,-966 1530,-1608 862,-1504 816,-3371 -118,-4831 -385,-602 -941,-1141 -1540,-1494 -147,-87 -189,-136 -202,-237 -13,-98 54,-208 152,-250 26,-10 59,-14 104,-12 76,4 129,31 379,196 317,208 552,401 835,686 575,579 976,1233 1240,2021 343,1024 337,2205 -16,3247 -367,1086 -1077,2010 -2036,2650 -72,49 -151,97 -175,108 -60,27 -140,26 -204,-4 z"
       id="path978" />
    <path
       d="m 3110,11891 c -14,-5 -56,-27 -95,-51 C 2200,11340 1590,10594 1267,9700 1032,9049 968,8310 1086,7612 c 78,-469 261,-970 501,-1381 363,-620 894,-1148 1516,-1505 145,-83 196,-90 285,-39 33,19 50,38 68,76 26,58 29,84 13,140 -16,58 -60,100 -172,163 -463,262 -900,663 -1213,1113 -352,506 -567,1080 -646,1721 -21,167 -17,692 5,860 99,730 358,1338 811,1905 106,133 424,450 561,559 61,49 184,137 275,196 193,127 232,159 254,204 69,146 -79,314 -234,267 z"
       id="path980" />
    <path
       d="m 7135,11835 c -43,-19 -82,-63 -100,-114 -18,-51 -18,-64 -5,-113 17,-58 52,-92 209,-198 80,-54 196,-138 256,-186 148,-118 460,-431 577,-579 441,-556 697,-1163 795,-1885 22,-168 26,-693 5,-860 -56,-458 -182,-881 -377,-1271 -196,-389 -493,-783 -810,-1069 -208,-189 -332,-281 -666,-495 -82,-53 -112,-105 -107,-187 8,-113 92,-184 207,-176 51,4 72,13 185,82 1018,624 1725,1665 1920,2824 47,277 59,457 53,782 -8,425 -45,676 -159,1075 -239,835 -769,1604 -1474,2136 -109,83 -291,207 -341,232 -38,20 -125,21 -168,2 z"
       id="path982" />
    <path
       d="m 3605,11013 c -10,-3 -62,-32 -115,-65 -369,-232 -702,-558 -942,-924 -264,-401 -422,-819 -495,-1309 -26,-174 -25,-660 0,-830 98,-639 339,-1168 749,-1642 224,-259 557,-528 833,-673 66,-35 86,-41 119,-37 80,11 140,90 126,168 -11,62 -35,85 -155,158 -292,176 -513,361 -720,603 -367,427 -588,928 -661,1497 -23,171 -23,512 0,686 71,553 296,1065 652,1485 174,205 378,385 621,546 151,100 175,126 177,194 2,98 -89,168 -189,143 z"
       id="path984" />
    <path
       d="m 6675,10979 c -93,-27 -135,-150 -76,-225 11,-14 66,-57 121,-94 289,-196 555,-455 747,-725 461,-651 625,-1481 448,-2265 -72,-320 -214,-650 -401,-930 -119,-180 -199,-277 -358,-435 -185,-185 -325,-297 -519,-415 -147,-89 -180,-148 -135,-238 28,-57 71,-84 133,-84 38,0 61,10 145,62 232,144 389,268 591,470 773,771 1080,1882 817,2960 -101,416 -310,839 -589,1192 -159,200 -421,446 -657,615 -148,106 -206,130 -267,112 z"
       id="path986" />
    <path
       d="m 5121,9099 c -179,-23 -330,-105 -469,-254 -86,-92 -161,-233 -187,-350 -69,-309 98,-647 401,-813 l 69,-37 5,-3731 5,-3731 30,-48 c 120,-194 405,-169 481,42 11,32 13,676 14,3753 v 3715 l 73,38 c 174,92 317,261 383,452 25,71 28,95 29,210 0,110 -4,141 -23,199 -91,272 -306,478 -562,539 -88,21 -172,26 -249,16 z"
       id="path988" />
  </g>
</svg>
